# xmcd
#
# Track frame offsets:
#	150
#	4276
#	47907
#	61915
#	66329
#	76430
#	81239
#	90583
#	106386
#	117331
#	126316
#	133759
#	141784
#	150990
#	159792
#	164800
#	173098
#	178963
#	182801
#	187654
#	190608
#	198321
#	205340
#	217315
#	247025
#	256524
#	265372
#	276736
#	290179
#	297020
#	308063
#	334229
#
# Disc length: 4685 seconds
#
# Revision: 0
# Processed by: cddbd v1.5.2PL0 Copyright (c) Steve Scherf et al.
# Submitted via: EasyCDDAExtractor 4.5.0.2
#
DISCID=ec124b20
DTITLE=Various Artist - коутяа 2006
DYEAR=1900
DGENRE=
TTITLE0=паяоусиасг
TTITLE1=соко тсижтетеки
TTITLE2=ав цумаийес
TTITLE3=ти атувиа
TTITLE4=ациос
TTITLE5=лиа памтяелемг ацапгса
TTITLE6=фажеияемиа
TTITLE7=дуо йаядиес еяытеулемес
TTITLE8=ягланам та выяиа лас
TTITLE9=еиласте ои лауяои кицостои
TTITLE10=о йоййояас
TTITLE11=соко
TTITLE12=ха йамы фглиес
TTITLE13=та астяа яытгса
TTITLE14=дем ликоум ои лаяцаяитес
TTITLE15=дуо ацапес дуо фглиес
TTITLE16=паято апожасг
TTITLE17=ти фгтас апо лема ти хес
TTITLE18=CHICOULATA
TTITLE19=оуте стом евхяо лоу 
TTITLE20=ти алаятиес евы йамеи
TTITLE21=алаятыкои йаи аццекои
TTITLE22=вяусоука
TTITLE23=поу еимаи ои жикои лоу ои йакои
TTITLE24=цяаллата соу стекмы
TTITLE25=то стауяо поу соу 'вы паяеи
TTITLE26=йаяацйоума
TTITLE27=сйаяос
TTITLE28=сысе ле
TTITLE29=йоулпаяа
TTITLE30=пеядийолата
TTITLE31=аццекийоука
EXTD=
EXTT0=
EXTT1=
EXTT2=
EXTT3=
EXTT4=
EXTT5=
EXTT6=
EXTT7=
EXTT8=
EXTT9=
EXTT10=
EXTT11=
EXTT12=
EXTT13=
EXTT14=
EXTT15=
EXTT16=
EXTT17=
EXTT18=
EXTT19=
EXTT20=
EXTT21=
EXTT22=
EXTT23=
EXTT24=
EXTT25=
EXTT26=
EXTT27=
EXTT28=
EXTT29=
EXTT30=
EXTT31=
PLAYORDER=
